<svg xmlns="http://www.w3.org/2000/svg" width="473" height="280" fill="none"><path fill="#E6E9F2" d="M5.5 186.5c-2.5 35.5 4.5 58 34 76s372.5 12 391.5 0 20-28 12.5-44.5-9-39 0-52.5 16.974-18.377 21.5-34c5.623-45.245-12.5-72.964-41-75-28.5-2.036-58.5-18.5-58.5-18.5S347.137 25.247 338 15.5c-21.6-25.676-56-5.048-62.5 0-20.055 15.576-32.216 20.49-67.5 12L142 17S96.805 9.569 77.5 27.5C60.402 47.505 60.493 62.361 69 92c3.39 13.588 2.896 22.168-3 39.5-5.568 8.265-10.005 12.202-24 16-25.183 9.113-35.162 20-36.5 39Z"/><path fill="#3C3F3E" d="M124.5 67c.429-3.96 1.802-4.856 5.5-5l213.5.5c3.402.27 4.305 1.344 4.5 4.5v139.5c-.053 3.356-.893 4.452-4 5H129c-3.378-.169-4.428-1.088-4.5-4.5V67Z"/><path fill="#fff" d="M140.5 78c.11-3.14 1.067-4.159 4.5-4.5h183.5c3.031.307 3.876 1.28 4 4.278V198c-.396 2.618-1.266 3.51-4 4h-184c-2.757-.272-3.668-1.126-4-4V78Z"/><circle cx="236.5" cy="67.5" r="2.5" fill="#D9D9D9"/><path fill="#3C3F3E" d="m122 160 3 1v5c-4.674-.629-6.316-1.406-9.105-5-1.794-3.767-2.767-4.791-8-14-1.036-1.913-3.395-3-5.895-3.5-2.5-.5-9.858.687-16.5.5-9.829-1.753-15.5-11-16-13.5S69 124 69 124l-.5-7.5c-.731-3.314-1.422-3.837-2.5-5.5-1.44.318-2.185.228-3.5 0-4.372-1.482-8.5-4-8.5-4s-1.4-3.706 2.5-3l7 3c-2.137-2.566-3.377-3.878-5-8-.393-2.226.19-2.622 2.5-2 2.556 2.407 3.493 3.864 5 6.5l.5-8c1.287-1.895 1.943-1.875 3 0 .511 2.413.714 4.802 1 10 1.401-2.005 2.33-2.95 4.5-4 2.477-.713 2.83-.082 2.5 2-2.197 2.932-3.652 4.189-6.5 6 1.209 1.701 1.86 2.705 2.5 5.5.32 1.279.5 13.25 1 14.5 1 2.5 5.464 7.218 10 9 8 1 9.398-.028 18.5-.5 2.584.069 6.584 1.278 8.5 5 4.621 9.853 6.842 14.084 10.5 17ZM351.5 158c-1.427-.089-2.292.003-4 .5v6c1.197-.759 2.23-1.101 5-1.5l13.5-1c3.033-.582 4.38-1.507 6-4.5 1.392-5.278 2.253-7.725 4-11 2.389-2.98 3.931-4.029 7-5 5.429-1.051 8.603-1.22 16-4 5.197-3.107 6.916-5.593 7.5-11.5 5.361-2.546 7.711-4.473 10.5-9 .063-1.956-.638-2.25-3-1.5-1.99 3.1-3.408 3.854-6 5 2.077-2.922 3.217-4.638 5-8.5.182-2.306-.684-2.329-2.5-2-1.586 1.154-2.163 1.864-3 3.5-1.154 2.806-1.738 3.27-2.5 4 .473-2.798.079-4.904-.48-7.891l-.02-.109c-1.168-1.585-1.908-1.765-3.5 0-.46 3.246-.32 5.13 0 8.5-.95-1.064-1.642-1.881-3.5-4.5-2.786-1.136-3.471-.592-3.5 2 4.334 6.922 5.036 6.544 7.5 9-.735 4.488-2.124 6.529-7 9L381 137c-6.338 2.393-9.481 4.543-12.5 13.5-.642 3.108-1.399 4.843-2.5 6-1.272 1.149-3.045 1.698-14.5 1.5Z"/><path fill="#B2B2B2" d="m104.454 252.072 22.424-38.506L345.635 213l21.925 39.639c1.412 3.531-.446 5.095-7.474 6.228-4.696.985-7.725.729-14.451 1.133H122.393c-7.843-.262-12.004-.499-15.946-2.265-2.433-1.529-2.955-2.731-1.993-5.663Z"/><path fill="#3C3F3E" d="m129 222 2.5-4h13l-2 4H129ZM198 218h-47.5l-2 4.5H197l1-4.5ZM145 230.5l2.5-5h49l-1 5H145ZM141 240.5l3-6.5h51l-1.5 6.5H141ZM124 230l2.5-4H141l-2 4h-15ZM117 240l4-5.5h16l-2.5 5.5H117ZM203 222l1-4h65.5l1 4H203ZM201 230.5l1.5-5H271l1 5h-71ZM198.5 240.5l2-6.5h72l1.5 6.5h-75.5ZM322.5 218H275l1 4h48l-1.5-4ZM277.5 230.5l-1-4.5h49l2 4.5h-50ZM279.5 240.5l-1.5-6h51.5l2.5 6h-52.5ZM329 222l-1.5-4H342l2.5 4H329ZM346 225.5h-15.5l2.5 5h16.5l-3.5-5ZM338 240.5l-3-6.5h16.5l4 6.5H338Z"/><circle cx="315.5" cy="102.5" r="5.5" fill="#FFDA57"/><path fill="#FFDA57" d="M311.5 89V43.5c.532-2.397 1.302-3.07 3.5-3 2.457-.223 3.191.654 4 3V89c-.559 3.535-1.438 4.5-4 4.5-1.963-.413-2.829-1.179-3.5-4.5Z"/><path stroke="#3C3F3E" stroke-linecap="round" stroke-width="2" d="M209 121c-6.639 7.029-9.861 10.471-16.5 17.5M192 121.5l17 17M281 121c-6.639 7.029-9.861 10.471-16.5 17.5M264 121.5l17 17"/><circle cx="300.5" cy="147.5" r="7.5" fill="#FFB6CD"/><circle cx="172.5" cy="147.5" r="7.5" fill="#FFB6CD"/><path stroke="#3C3F3E" stroke-linecap="round" stroke-width="2" d="M188 157h97"/><path fill="#FF94B6" d="M259 174.5V158h14v16.5c-.748 2.202-1.367 3.112-3.231 3.5h-7.538c-1.859-.663-2.581-1.401-3.231-3.5Z"/><path fill="#3C3F3E" d="M265.5 172a.5.5 0 0 0 1 0h-1Zm0-14v14h1v-14h-1Z"/></svg>